<svg width="20" height="20" viewBox="0 0 20 20" fill="none" xmlns="http://www.w3.org/2000/svg">
<g clip-path="url(#clip0_312_11)">
<path d="M18.6055 5.51099L14.489 1.39537C14.3439 1.25021 14.1717 1.13506 13.9821 1.0565C13.7924 0.977936 13.5892 0.9375 13.384 0.9375C13.1787 0.9375 12.9755 0.977936 12.7859 1.0565C12.5963 1.13506 12.424 1.25021 12.2789 1.39537L1.39452 12.279C1.24936 12.4241 1.13421 12.5963 1.05564 12.786C0.977082 12.9756 0.936646 13.1788 0.936646 13.384C0.936646 13.5893 0.977082 13.7925 1.05564 13.9821C1.13421 14.1717 1.24936 14.344 1.39452 14.4891L5.51092 18.6047C5.65602 18.7499 5.8283 18.8651 6.01791 18.9436C6.20752 19.0222 6.41076 19.0626 6.616 19.0626C6.82124 19.0626 7.02448 19.0222 7.21409 18.9436C7.4037 18.8651 7.57598 18.7499 7.72108 18.6047L18.6055 7.72115C18.7506 7.57605 18.8658 7.40377 18.9443 7.21416C19.0229 7.02455 19.0633 6.82132 19.0633 6.61607C19.0633 6.41083 19.0229 6.2076 18.9443 6.01798C18.8658 5.82837 18.7506 5.65609 18.6055 5.51099ZM6.61561 17.0579L2.94373 13.386L4.99998 11.3282L6.83748 13.1657C7.0136 13.3418 7.25247 13.4407 7.50155 13.4407C7.75062 13.4407 7.98949 13.3418 8.16561 13.1657C8.34173 12.9896 8.44067 12.7507 8.44067 12.5016C8.44067 12.2525 8.34173 12.0137 8.16561 11.8376L6.32811 10.0001L7.49998 8.82818L9.3367 10.6657C9.51282 10.8418 9.75169 10.9407 10.0008 10.9407C10.2498 10.9407 10.4887 10.8418 10.6648 10.6657C10.8409 10.4896 10.9399 10.2507 10.9399 10.0016C10.9399 9.75255 10.8409 9.51368 10.6648 9.33756L8.82811 7.50006L9.99998 6.32818L11.8375 8.16568C12.0136 8.3418 12.2525 8.44075 12.5015 8.44075C12.7506 8.44075 12.9895 8.3418 13.1656 8.16568C13.3417 7.98956 13.4407 7.75069 13.4407 7.50162C13.4407 7.25255 13.3417 7.01368 13.1656 6.83756L11.3281 5.00006L13.3867 2.94224L17.0586 6.61412L6.61561 17.0579Z" fill="#FF7F11"/>
</g>
<defs>
<clipPath id="clip0_312_11">
<rect width="20" height="20" fill="white"/>
</clipPath>
</defs>
</svg>
